<svg xmlns="http://www.w3.org/2000/svg" viewBox="0 0 1000 1333" width="1000" height="1333"><defs><style>
@font-face{font-family:AB;src:url(file:///tmp/claude-0/fonts/ArchivoBlack-Regular.ttf)}
@font-face{font-family:PA;src:url(file:///tmp/claude-0/fonts/Pacifico-Regular.ttf)}
@font-face{font-family:CH;src:url(file:///tmp/claude-0/fonts/Chango-Regular.ttf)}
@font-face{font-family:FR;src:url(file:///tmp/claude-0/fonts/Fraunces-Italic.ttf)}
.ab{font-family:AB} .pa{font-family:PA} .ch{font-family:CH} .fr{font-family:FR;font-variation-settings:'wght' 800,'SOFT' 100,'opsz' 144}
</style></defs><rect x="70" y="90" width="860" height="470" rx="26" fill="none" stroke="#14263B" stroke-width="10"/><mask id="ks"><rect width="1000" height="1333" fill="#fff"/><g fill="#000"><text class="ab" x="500" y="165" font-size="46" fill="#000" text-anchor="middle" letter-spacing="14">COURT CENTRAL</text></g></mask><g mask="url(#ks)"><path d="M70,116 a26,26 0 0 1 26,-26 h808 a26,26 0 0 1 26,26 v84 h-860Z" fill="#14263B"/></g><text class="ab" x="145.0" y="250" font-size="26" fill="#14263B" text-anchor="middle" letter-spacing="6">N°</text><text class="ab" x="425.0" y="250" font-size="26" fill="#14263B" text-anchor="middle" letter-spacing="6">JOUEUR</text><line x1="220" y1="200" x2="220" y2="560" stroke="#14263B" stroke-width="5"/><text class="ab" x="705.0" y="250" font-size="26" fill="#14263B" text-anchor="middle" letter-spacing="6">SET 1</text><line x1="630" y1="200" x2="630" y2="560" stroke="#14263B" stroke-width="5"/><text class="ab" x="855.0" y="250" font-size="26" fill="#14263B" text-anchor="middle" letter-spacing="6">SET 2</text><line x1="780" y1="200" x2="780" y2="560" stroke="#14263B" stroke-width="5"/><line x1="70" y1="275" x2="930" y2="275" stroke="#14263B" stroke-width="5"/><line x1="70" y1="420" x2="930" y2="420" stroke="#14263B" stroke-width="5"/><text class="ab" x="425" y="515" font-size="52" fill="#14263B" text-anchor="middle" >LES AUTRES</text><text class="ch" x="705" y="522" font-size="92" fill="#14263B" text-anchor="middle" >2</text><text class="ch" x="705" y="380" font-size="104" fill="#14263B" text-anchor="middle" >6</text><text class="ch" x="855" y="522" font-size="92" fill="#14263B" text-anchor="middle" >1</text><text class="ch" x="855" y="380" font-size="104" fill="#14263B" text-anchor="middle" >6</text><circle cx="870" cy="146" r="24" fill="#C8D43B" stroke="#14263B" stroke-width="2.9"/><path d="M855.1,127.3 Q867.6,146.0 855.1,164.7" fill="none" stroke="#14263B" stroke-width="2.4" stroke-linecap="round"/><path d="M884.9,127.3 Q872.4,146.0 884.9,164.7" fill="none" stroke="#14263B" stroke-width="2.4" stroke-linecap="round"/><text class="ab" x="500" y="635" font-size="30" fill="#14263B" text-anchor="middle" letter-spacing="16">BANDEJA CLUB · PADEL</text><text class="ch" x="145" y="374" font-size="72" fill="#14263B" text-anchor="middle" >10</text><text class="ab" x="425" y="373" font-size="58" fill="#14263B" text-anchor="middle" >DUPONT</text></svg>